<svg width="14" height="17" viewBox="0 0 14 17" fill="none" xmlns="http://www.w3.org/2000/svg">
<path fill-rule="evenodd" clip-rule="evenodd" d="M6.99967 16.8334L7.48688 16.4046C11.5839 12.7996 13.6663 9.65179 13.6663 6.88484C13.6663 2.96641 10.6315 0.166687 6.99967 0.166687C3.36786 0.166687 0.333008 2.96641 0.333008 6.88484C0.333008 9.65179 2.41546 12.7996 6.51247 16.4046L6.99967 16.8334ZM7 14.8446C3.52342 11.6871 1.81482 9.01157 1.81482 6.88473C1.81482 3.82171 4.15861 1.65951 7 1.65951C9.8414 1.65951 12.1852 3.82171 12.1852 6.88473C12.1852 9.01157 10.4766 11.6871 7 14.8446ZM6.99879 3.15253C9.04429 3.15253 10.7025 4.82354 10.7025 6.88483C10.7025 8.94613 9.04429 10.6171 6.99879 10.6171C4.95329 10.6171 3.29509 8.94613 3.29509 6.88483C3.29509 4.82354 4.95329 3.15253 6.99879 3.15253ZM4.7769 6.88483C4.7769 5.64805 5.77182 4.64545 6.99912 4.64545C8.22642 4.64545 9.22134 5.64805 9.22134 6.88483C9.22134 8.12161 8.22642 9.12422 6.99912 9.12422C5.77182 9.12422 4.7769 8.12161 4.7769 6.88483Z" fill="#E9C300"/>
</svg>
