<svg width="37" height="45" viewBox="0 0 37 45" fill="none" xmlns="http://www.w3.org/2000/svg">
<path d="M27.833 0.708984C27.833 0.918057 27.833 8.5492 27.833 8.5492H36.0002" stroke="#333333" stroke-width="0.92474" stroke-miterlimit="10"/>
<path d="M12.2425 18.8228C13.0105 18.8228 13.5705 19.0228 13.9225 19.4228C14.2825 19.8228 14.4625 20.4668 14.4625 21.3548C14.4625 21.7468 14.4265 22.1028 14.3545 22.4228C14.2825 22.7428 14.1585 23.0188 13.9825 23.2508C13.8065 23.4748 13.5745 23.6508 13.2865 23.7788C13.0065 23.9068 12.6505 23.9708 12.2185 23.9708H11.6905V27.1748H10.3945V18.8228H12.2425ZM11.6905 20.0468V22.7348H12.1465C12.5465 22.7348 12.8225 22.6228 12.9745 22.3988C13.1345 22.1668 13.2145 21.8228 13.2145 21.3668C13.2145 20.9588 13.1385 20.6388 12.9865 20.4068C12.8425 20.1668 12.5705 20.0468 12.1705 20.0468H11.6905ZM18.0278 21.0188C18.0278 20.7148 17.9678 20.4788 17.8478 20.3108C17.7358 20.1348 17.5158 20.0468 17.1878 20.0468H16.6358V25.9508H17.1878C17.5078 25.9508 17.7278 25.8668 17.8478 25.6988C17.9678 25.5308 18.0278 25.2868 18.0278 24.9668V21.0188ZM17.4158 18.8228C17.9118 18.8228 18.3038 18.9108 18.5918 19.0868C18.8798 19.2548 19.0798 19.5428 19.1918 19.9508C19.2798 20.2468 19.3238 20.6548 19.3238 21.1748C19.3318 21.6868 19.3358 22.2908 19.3358 22.9868C19.3358 23.6748 19.3318 24.2668 19.3238 24.7628C19.3158 25.2588 19.2638 25.6508 19.1678 25.9388C19.0158 26.4108 18.7718 26.7348 18.4358 26.9108C18.1078 27.0868 17.7318 27.1748 17.3078 27.1748H15.3398V18.8228H17.4158ZM21.8507 20.0468V22.3148H23.9507V23.5508H21.8507V27.1748H20.5547V18.8228H24.2627V20.0468H21.8507Z" fill="#333333"/>
<path d="M36 44.5H3.43918H1V0.5H27.5957H28.0213L36 8.3759V9.21599V44.5Z" stroke="#333333" stroke-width="0.92474" stroke-miterlimit="10"/>
</svg>
